# xmcd CD database file
#
# Track frame offsets:
#	150
#	12825
#	24525
#	38400
#	51912
#	65735
#	78562
#	91815
#	105642
#	118052
#	132042
#	144717
#	159577
#	174247
#	188967
#	202205
#	215632
#	229700
#	244992
#	260065
#	274920
#
# Disc length: 3855 seconds
#
# Revision: 1
# Processed by: cddbd v1.5.2PL0 Copyright (c) Steve Scherf et al.
# Submitted via: CDex 1.51
#
DISCID=340f0d15
DTITLE=Billie Holiday - Complete Edition Volume 1 - 1933-1936
DYEAR=1936
DGENRE=Jazz
TTITLE0=Your Mother's Son-in-Law
TTITLE1=Riffin' The Scotch
TTITLE2=I Wished on The Moon
TTITLE3=What a Little Moonlight Can Do
TTITLE4=Miss Brown to You
TTITLE5=A Subonnet Blue and a Yellow Straw Hat
TTITLE6=What a Night, What a Moon, What a Gril
TTITLE7=I'm Painting The Town Red
TTITLE8=It's Too Hot for Words
TTITLE9=Twenty-Four Hours a Day
TTITLE10=Yankee Doodle Never Went to Town
TTITLE11=Eeny Meeny Miney Mo
TTITLE12=If You Where Mine
TTITLE13=These 'n' That 'n' Those
TTITLE14=You Let Me Down
TTITLE15=Spreadin' Rythm Around
TTITLE16=Life Begins When You're in Love
TTITLE17=It's Like Reaching for The Moon
TTITLE18=These Foolish Things
TTITLE19=I Cried for You
TTITLE20=Guess Who?
EXTD=YEAR: 1936
EXTT0=
EXTT1=
EXTT2=
EXTT3=
EXTT4=
EXTT5=
EXTT6=
EXTT7=
EXTT8=
EXTT9=
EXTT10=
EXTT11=
EXTT12=
EXTT13=
EXTT14=
EXTT15=
EXTT16=
EXTT17=
EXTT18=
EXTT19=
EXTT20=
PLAYORDER=
